<svg xmlns="http://www.w3.org/2000/svg" version="1.1" xmlns:xlink="http://www.w3.org/1999/xlink" xmlns:svgjs="http://svgjs.com/svgjs" width="500" height="500"><svg width="500" height="500" viewBox="0 0 500 500" fill="none" xmlns="http://www.w3.org/2000/svg">
<rect width="500" height="500" fill="#F5F5F5"></rect>
<rect width="500" height="500" rx="25" fill="#0D101B"></rect>
<path d="M60 295H440" stroke="#EDFF1F" stroke-width="3" stroke-linecap="round"></path>
<path d="M102.205 242C102.015 239.633 101.127 237.786 99.5412 236.46C97.9787 235.134 95.5994 234.472 92.4034 234.472C90.3674 234.472 88.6984 234.72 87.3963 235.217C86.1179 235.691 85.1709 236.342 84.5554 237.17C83.9399 237.999 83.6203 238.946 83.5966 240.011C83.5492 240.887 83.7031 241.68 84.0582 242.391C84.437 243.077 85.0289 243.705 85.8338 244.273C86.6387 244.817 87.6686 245.314 88.9233 245.764C90.178 246.214 91.6695 246.616 93.3977 246.972L99.3636 248.25C103.388 249.102 106.833 250.227 109.697 251.624C112.562 253.02 114.906 254.666 116.729 256.56C118.552 258.43 119.889 260.537 120.741 262.881C121.617 265.224 122.067 267.781 122.091 270.551C122.067 275.333 120.872 279.382 118.504 282.696C116.137 286.01 112.751 288.532 108.348 290.26C103.968 291.988 98.7008 292.852 92.5455 292.852C86.2244 292.852 80.7083 291.917 75.9972 290.047C71.3097 288.177 67.6638 285.3 65.0597 281.418C62.4792 277.511 61.1771 272.516 61.1534 266.432H79.9034C80.0218 268.657 80.5781 270.527 81.5724 272.043C82.5668 273.558 83.9635 274.706 85.7628 275.487C87.5857 276.268 89.7519 276.659 92.2614 276.659C94.3684 276.659 96.1321 276.399 97.5526 275.878C98.973 275.357 100.05 274.635 100.784 273.712C101.518 272.788 101.897 271.735 101.92 270.551C101.897 269.438 101.53 268.468 100.82 267.639C100.133 266.787 98.9967 266.029 97.4105 265.366C95.8243 264.68 93.6818 264.041 90.983 263.449L83.7386 261.886C77.2992 260.49 72.2211 258.158 68.5043 254.891C64.8111 251.6 62.9763 247.114 63 241.432C62.9763 236.815 64.2074 232.779 66.6932 229.322C69.2027 225.842 72.6709 223.132 77.098 221.19C81.5488 219.249 86.6506 218.278 92.4034 218.278C98.2746 218.278 103.353 219.261 107.638 221.226C111.923 223.191 115.225 225.961 117.545 229.536C119.889 233.087 121.073 237.241 121.097 242H102.205ZM147.499 279.074L147.641 255.778H150.198L163.408 237.455H185.425L163.266 266.006H157.727L147.499 279.074ZM129.886 292V219.273H149.488V292H129.886ZM163.55 292L151.05 270.409L163.835 256.489L185.994 292H163.55ZM203.927 312.455C201.678 312.455 199.535 312.277 197.499 311.922C195.463 311.59 193.676 311.129 192.137 310.537L196.398 296.616C198.008 297.185 199.476 297.552 200.802 297.717C202.151 297.883 203.299 297.788 204.246 297.433C205.217 297.078 205.915 296.403 206.342 295.409L206.768 294.415L187.592 237.455H208.046L216.853 275.239H217.421L226.37 237.455H246.967L227.08 296.545C226.086 299.552 224.642 302.251 222.748 304.642C220.878 307.057 218.415 308.963 215.362 310.359C212.308 311.756 208.496 312.455 203.927 312.455ZM252.258 292V219.273H283.792C289.332 219.273 293.984 220.018 297.748 221.51C301.536 223.001 304.388 225.108 306.306 227.831C308.247 230.554 309.218 233.761 309.218 237.455C309.218 240.13 308.626 242.568 307.442 244.77C306.282 246.972 304.649 248.818 302.542 250.31C300.435 251.777 297.973 252.795 295.156 253.364V254.074C298.281 254.192 301.121 254.985 303.678 256.453C306.235 257.897 308.271 259.898 309.786 262.455C311.301 264.988 312.059 267.971 312.059 271.403C312.059 275.381 311.017 278.92 308.934 282.021C306.874 285.123 303.939 287.561 300.127 289.337C296.316 291.112 291.77 292 286.491 292H252.258ZM272.002 276.233H281.235C284.549 276.233 287.035 275.617 288.692 274.386C290.35 273.132 291.178 271.285 291.178 268.847C291.178 267.142 290.788 265.698 290.006 264.514C289.225 263.33 288.112 262.431 286.668 261.815C285.248 261.2 283.531 260.892 281.519 260.892H272.002V276.233ZM272.002 248.676H280.099C281.827 248.676 283.354 248.404 284.68 247.859C286.005 247.315 287.035 246.534 287.769 245.516C288.527 244.474 288.906 243.207 288.906 241.716C288.906 239.467 288.101 237.75 286.491 236.567C284.881 235.359 282.845 234.756 280.383 234.756H272.002V248.676ZM319.339 292V237.455H338.941V292H319.339ZM329.14 231.773C326.488 231.773 324.216 230.897 322.322 229.145C320.428 227.393 319.481 225.286 319.481 222.824C319.481 220.362 320.428 218.255 322.322 216.503C324.216 214.751 326.488 213.875 329.14 213.875C331.815 213.875 334.088 214.751 335.958 216.503C337.852 218.255 338.799 220.362 338.799 222.824C338.799 225.286 337.852 227.393 335.958 229.145C334.088 230.897 331.815 231.773 329.14 231.773ZM381.457 237.455V251.659H345.52V237.455H381.457ZM352.48 224.386H372.082V274.457C372.082 275.215 372.212 275.854 372.473 276.375C372.733 276.872 373.136 277.251 373.68 277.511C374.225 277.748 374.923 277.866 375.775 277.866C376.367 277.866 377.054 277.795 377.835 277.653C378.64 277.511 379.232 277.393 379.61 277.298L382.451 291.077C381.575 291.337 380.321 291.657 378.687 292.036C377.077 292.414 375.16 292.663 372.934 292.781C368.436 293.018 364.66 292.556 361.606 291.396C358.552 290.213 356.256 288.354 354.717 285.821C353.178 283.288 352.432 280.116 352.48 276.304V224.386ZM438.728 255.21H420.688C420.594 254.098 420.203 253.139 419.516 252.334C418.83 251.529 417.942 250.913 416.853 250.487C415.788 250.037 414.604 249.812 413.302 249.812C411.621 249.812 410.177 250.12 408.969 250.736C407.762 251.351 407.17 252.227 407.194 253.364C407.17 254.169 407.513 254.914 408.224 255.601C408.958 256.287 410.366 256.82 412.45 257.199L423.529 259.188C429.116 260.205 433.271 261.922 435.994 264.337C438.74 266.728 440.125 269.936 440.148 273.96C440.125 277.843 438.965 281.216 436.668 284.081C434.396 286.922 431.282 289.124 427.329 290.686C423.399 292.225 418.913 292.994 413.87 292.994C405.537 292.994 399.014 291.29 394.303 287.881C389.616 284.472 387 279.973 386.455 274.386H405.915C406.176 276.115 407.028 277.452 408.472 278.399C409.94 279.322 411.787 279.784 414.012 279.784C415.811 279.784 417.291 279.476 418.451 278.861C419.635 278.245 420.238 277.369 420.262 276.233C420.238 275.191 419.718 274.363 418.7 273.747C417.705 273.132 416.143 272.634 414.012 272.256L404.353 270.551C398.79 269.58 394.623 267.734 391.853 265.011C389.083 262.289 387.71 258.785 387.734 254.5C387.71 250.712 388.704 247.504 390.717 244.876C392.753 242.225 395.653 240.213 399.417 238.839C403.205 237.443 407.691 236.744 412.876 236.744C420.759 236.744 426.974 238.378 431.519 241.645C436.088 244.912 438.491 249.434 438.728 255.21Z" fill="white"></path>
</svg><style>@media (prefers-color-scheme: light) { :root { filter: none; } }
</style></svg>