<?xml version="1.0" standalone="no"?>
<!DOCTYPE svg PUBLIC "-//W3C//DTD SVG 20010904//EN"
 "http://www.w3.org/TR/2001/REC-SVG-20010904/DTD/svg10.dtd">
<svg version="1.0" xmlns="http://www.w3.org/2000/svg"
 width="500.000000pt" height="500.000000pt" viewBox="0 0 500.000000 500.000000"
 preserveAspectRatio="xMidYMid meet">
<metadata>
Created by potrace 1.14, written by Peter Selinger 2001-2017
</metadata>
<g transform="translate(0.000000,500.000000) scale(0.100000,-0.100000)"
fill="#000000" stroke="none">
<path d="M285 4486 c-96 -30 -168 -83 -218 -159 -72 -108 -68 25 -65 -1847 l3
-1685 27 -58 c37 -79 78 -128 141 -170 109 -73 -81 -67 2347 -65 l2185 3 58
27 c79 37 128 78 170 141 72 108 68 -25 65 1847 l-3 1685 -27 58 c-37 79 -78
128 -141 170 -109 72 81 67 -2331 66 -1721 0 -2179 -3 -2211 -13z m3107 -776
c426 -41 793 -292 985 -675 139 -276 162 -621 62 -919 -121 -361 -413 -655
-764 -770 -185 -60 -128 -58 -1356 -58 -1267 0 -1184 -5 -1355 77 -222 107
-383 303 -445 540 -29 112 -29 289 0 400 102 387 459 648 848 621 51 -4 98 -8
105 -10 7 -3 39 26 70 64 70 84 200 183 314 239 127 62 244 91 399 98 l130 6
65 60 c200 183 456 301 710 326 122 12 115 12 232 1z"/>
<path d="M3200 3674 c-260 -29 -453 -98 -608 -218 -288 -221 -377 -539 -233
-831 79 -161 213 -286 403 -378 59 -29 107 -58 108 -64 0 -20 -16 -16 -106 26
-232 109 -399 282 -472 490 -23 67 -27 92 -27 201 0 142 21 227 82 327 18 31
33 57 33 59 0 10 -166 2 -241 -11 -227 -39 -409 -140 -572 -315 l-75 -81 -84
11 c-391 54 -780 -225 -863 -618 -19 -86 -19 -248 -1 -333 65 -304 318 -552
621 -610 29 -5 503 -9 1156 -9 946 0 1117 2 1185 15 366 70 677 307 842 641
77 155 111 291 118 474 19 450 -203 851 -596 1080 -82 47 -255 106 -368 125
-95 15 -247 25 -302 19z"/>
</g>
</svg>
