<?xml version="1.0" standalone="no"?>
<!DOCTYPE svg PUBLIC "-//W3C//DTD SVG 20010904//EN"
 "http://www.w3.org/TR/2001/REC-SVG-20010904/DTD/svg10.dtd">
<svg version="1.0" xmlns="http://www.w3.org/2000/svg"
 width="500.000000pt" height="500.000000pt" viewBox="0 0 500.000000 500.000000"
 preserveAspectRatio="xMidYMid meet">
<metadata>
Created by potrace 1.14, written by Peter Selinger 2001-2017
</metadata>
<g transform="translate(0.000000,500.000000) scale(0.100000,-0.100000)"
fill="#000000" stroke="none">
<path d="M306 4489 c-62 -15 -153 -68 -197 -116 -22 -24 -55 -74 -72 -111
l-32 -67 0 -1696 0 -1695 37 -76 c45 -91 103 -147 196 -191 l67 -32 2196 0
2195 0 76 37 c91 45 147 103 191 196 l32 67 0 1695 0 1695 -32 67 c-44 93
-100 151 -191 196 l-76 37 -2175 2 c-1291 0 -2192 -3 -2215 -8z m3247 -798
c415 -95 756 -403 890 -803 142 -425 40 -894 -268 -1226 -131 -141 -338 -272
-517 -326 -187 -57 -168 -56 -1353 -56 l-1092 0 -95 24 c-155 39 -287 116
-394 227 -105 111 -172 231 -210 374 -26 97 -26 303 0 400 82 312 329 546 643
611 58 13 110 15 206 11 111 -4 129 -3 136 12 15 26 141 147 201 192 77 57
214 125 313 153 96 28 270 51 327 43 35 -4 43 -1 92 46 179 169 416 291 638
327 41 6 82 13 90 15 44 11 313 -6 393 -24z"/>
<path d="M3077 3655 c-292 -49 -539 -199 -676 -410 -69 -106 -92 -177 -98
-309 -7 -134 5 -192 62 -311 75 -156 211 -283 403 -377 74 -37 102 -55 102
-69 0 -17 -3 -17 -38 -5 -21 8 -67 28 -103 46 -416 210 -582 620 -399 984 l37
75 -27 6 c-45 10 -219 -12 -315 -40 -177 -51 -361 -171 -474 -308 -50 -62 -56
-65 -85 -59 -17 4 -89 7 -161 7 -108 0 -143 -4 -205 -24 -217 -67 -388 -210
-485 -406 -64 -131 -79 -196 -79 -350 0 -155 14 -218 81 -355 41 -82 60 -108
147 -195 111 -111 195 -163 336 -207 l75 -23 1150 0 1150 0 98 27 c348 96 619
318 772 632 221 452 133 987 -219 1342 -140 140 -264 217 -446 278 -189 63
-416 82 -603 51z"/>
</g>
</svg>
